<svg width="154" height="64" viewBox="0 0 154 64" fill="none" xmlns="http://www.w3.org/2000/svg">
<path d="M30.466 55.9339C29.8977 56.0006 29.4024 55.5466 29.4217 54.9747L29.4828 53.1688C29.4957 52.7857 29.162 52.4823 28.7818 52.5316L25.6439 52.9383C25.4574 52.9625 25.2918 53.0699 25.1937 53.2304L23.1443 56.5815C23.0011 56.8156 22.7612 56.9747 22.4901 57.0171C16.5652 57.9449 11.6393 59.0292 7.9866 60.2269C7.3942 60.4212 6.86472 59.7195 7.23325 59.2167L9.74328 55.7918C10.0756 55.3384 9.68297 54.7119 9.13004 54.8132L1.88653 56.1408C1.2939 56.2494 0.908993 55.5357 1.32533 55.1001L14.7119 41.0969C14.8291 40.9743 14.9914 40.9049 15.161 40.9049H20.8292L29.7676 28.6497L26.2208 26.0536C25.736 25.6987 25.987 24.9307 26.5879 24.9307H52.6502C50.9465 24.2246 47.4808 22.1662 46.7613 19.4263C46.7096 19.2294 46.7752 19.0239 46.9169 18.8778C47.641 18.1309 49.7801 15.904 50.9006 14.7365C50.9006 14.7365 49.0321 13.3074 48.3763 10.6971C47.7117 8.05182 48.284 4.20911 52.0386 1.79778C55.6586 -0.527183 60.3331 0.0982373 63.2451 1.46818C65.8696 2.70291 67.5533 5.1983 67.5533 5.1983L76.3458 0.173978C76.5348 0.0659959 76.7665 0.0647483 76.9566 0.170689L86.4645 5.46876V1.60689C86.4645 1.2637 86.7427 0.985483 87.0859 0.985483H96.3041C96.6472 0.985483 96.9255 1.2637 96.9255 1.60689V15.0177C96.9255 15.3609 97.2037 15.6391 97.5469 15.6391H104.316C104.659 15.6391 104.937 15.9174 104.937 16.2605V25.0476H127.612C128.153 25.0476 128.436 25.6906 128.07 26.0891L124.623 29.8464L133.082 41.0272L139.305 41.4072C139.47 41.4173 139.625 41.4932 139.734 41.6181L151.276 54.7987C151.661 55.2392 151.28 55.9199 150.703 55.8204L144.474 54.7463C143.965 54.6586 143.578 55.1927 143.819 55.6488L146.153 60.0688C146.479 60.6861 145.404 61.6792 144.767 61.3936C141.866 60.0929 137.528 58.8979 132.05 57.8552C131.805 57.8086 131.587 57.6663 131.448 57.4598L128.647 53.3131C128.545 53.1619 128.382 53.0632 128.2 53.0432L125.233 52.7158C124.842 52.6727 124.51 52.9987 124.546 53.3902L124.739 55.4898C124.794 56.0894 124.274 56.5831 123.678 56.5011C117.571 55.6612 110.574 54.9762 102.938 54.4853C102.684 54.469 102.447 54.3495 102.283 54.1544L99.2564 50.5528C98.8496 50.0686 98.0638 50.4308 98.1677 51.0547L98.507 53.0905C98.6051 53.6786 98.1337 54.2062 97.5383 54.1762C90.3859 53.8159 82.759 53.6212 74.842 53.6212C68.2066 53.6212 61.7752 53.758 55.656 54.0144C55.2445 54.0316 54.8702 53.7774 54.7351 53.3883L53.7037 50.4182C53.4984 49.8272 52.6469 49.8758 52.5102 50.4864L51.8338 53.5091C51.7424 53.9175 51.39 54.2148 50.9721 54.2371C43.5341 54.6336 36.6281 55.2103 30.466 55.9339Z" fill="black"/>
<path fill-rule="evenodd" clip-rule="evenodd" d="M42.9877 28.0449C43.3105 28.0449 43.4193 28.4761 43.1351 28.6292L39.2669 30.7129L39.624 52.1479C39.6267 52.3095 39.505 52.4461 39.3442 52.4624C37.1423 52.6848 35.0091 52.9288 32.9503 53.1918C32.7517 53.2172 32.581 53.051 32.6014 52.8517L32.8884 50.043C32.8985 49.9439 32.8141 49.8611 32.7152 49.873L24.2191 50.9008C24.1747 50.9062 24.1348 50.9304 24.1096 50.9673L21.4176 54.9007C21.3712 54.9684 21.2998 55.0151 21.2191 55.0305C18.5026 55.55 16.0006 56.11 13.7385 56.7054C13.4516 56.7809 13.2283 56.4505 13.4071 56.2138C13.8699 55.601 14.3331 54.9881 14.7964 54.3753C15.443 53.5197 16.0896 52.6642 16.7353 51.8087L9.23576 52.7182C8.94999 52.7529 8.77481 52.4138 8.96841 52.2008L15.9416 44.5273C15.9961 44.4673 16.0719 44.431 16.1528 44.4261L20.9897 44.1348L20.9895 44.136L29.4164 43.6298C29.4221 43.63 29.4279 43.63 29.4339 43.6296L33.4354 43.3897C33.5114 43.3852 33.573 43.3262 33.5807 43.2504L34.2522 36.6562C34.2685 36.496 34.0603 36.4199 33.9694 36.5528L30.5769 41.5142L24.6079 41.3892C25.4029 40.3374 26.1977 39.2856 26.9925 38.2338C29.5287 34.8777 32.0645 31.5222 34.6018 28.1682C34.6605 28.0905 34.7522 28.0449 34.8496 28.0449H42.9877Z" fill="white"/>
<path fill-rule="evenodd" clip-rule="evenodd" d="M146.716 52.3922C146.91 52.6053 146.735 52.9443 146.449 52.9096L138.949 52.0001C139.75 53.0597 140.551 54.1194 141.352 55.179C141.943 55.9613 142.535 56.7436 143.126 57.5259C143.312 57.7723 143.062 58.1143 142.769 58.0161C140.501 57.2552 137.864 56.54 134.901 55.8727C134.824 55.8554 134.757 55.8097 134.712 55.7448L131.535 51.1006L122.777 50.0411L123.113 53.3453C123.134 53.5466 122.959 53.7135 122.759 53.6846C120.699 53.3876 118.554 53.1122 116.332 52.8556C116.173 52.8372 116.054 52.7014 116.057 52.5415L116.418 30.9043L112.55 28.8206C112.265 28.6675 112.374 28.2363 112.697 28.2363H120.835C120.932 28.2363 121.024 28.2819 121.083 28.3596C123.62 31.7135 126.156 35.0689 128.692 38.4249C129.547 39.5563 130.402 40.6877 131.257 41.8191L125.271 41.9444L121.715 36.7442C121.624 36.6113 121.416 36.6874 121.433 36.8476L122.104 43.4418C122.112 43.5176 122.173 43.5766 122.249 43.5811L124.431 43.712L124.431 43.7162L134.847 44.3419L134.845 44.3352L139.532 44.6175C139.613 44.6224 139.689 44.6587 139.743 44.7187L146.716 52.3922Z" fill="white"/>
<path d="M65.1737 34.1431C65.1737 28.8072 61.3638 28.0449 60.2208 28.0449H49.7958C49.6532 28.0449 49.5289 28.142 49.4944 28.2803L47.6904 35.4976C47.6414 35.6937 47.7897 35.8837 47.9919 35.8837H52.8001C52.9499 35.8837 53.0785 35.7767 53.1056 35.6292L53.6368 32.7458C53.6504 32.6721 53.7146 32.6185 53.7896 32.6185H57.5539C57.5539 32.6185 59.4589 32.6185 59.4589 34.9054C59.4589 37.9316 56.8682 37.9544 56.792 37.9544L47.3188 37.9545C47.1763 37.9545 47.052 38.0515 47.0174 38.1898L43.6545 51.6415C43.6027 51.8485 43.7702 52.0449 43.9828 52.0267C45.9208 51.861 47.9019 51.7077 49.9258 51.5697C50.0675 51.56 50.1846 51.4557 50.2104 51.3161L51.6708 43.4175C51.6845 43.3438 51.7487 43.2903 51.8236 43.2903H54.3972C54.4625 43.2903 54.5209 43.3312 54.5432 43.3926L57.2853 50.9344C57.3318 51.0623 57.456 51.145 57.5919 51.1387C59.8014 51.0364 62.0513 50.9528 64.333 50.888C64.556 50.8817 64.7002 50.6496 64.6067 50.447L60.6018 41.7658C60.6018 41.7658 65.1737 39.479 65.1737 34.1431Z" fill="white"/>
<path d="M85.589 50.4597C85.6254 50.6538 85.4736 50.8322 85.2761 50.8276C82.2481 50.7574 79.1611 50.7223 76.032 50.7223C73.3268 50.7223 70.6531 50.7469 68.0177 50.7994C67.8376 50.803 67.6921 50.6533 67.7009 50.4734L68.7787 28.5308C68.7869 28.3653 68.9234 28.2354 69.0891 28.2354H83.3532C83.52 28.2354 83.657 28.367 83.6637 28.5336L83.8293 32.6764C83.8364 32.8528 83.6953 32.9995 83.5189 32.9995H74.0919C74.0061 32.9995 73.9366 33.0691 73.9366 33.1549V36.6555C73.9366 36.7413 74.0061 36.8109 74.0919 36.8109H81.6266C81.7982 36.8109 81.9373 36.95 81.9373 37.1216V40.6927C81.9373 40.8643 81.7982 41.0034 81.6266 41.0034H74.0919C74.0061 41.0034 73.9366 41.0729 73.9366 41.1587V45.0405C73.9366 45.1263 74.0061 45.1959 74.0919 45.1959H84.3463C84.4958 45.1959 84.6242 45.3024 84.6517 45.4494L85.589 50.4597Z" fill="white"/>
<path d="M104.662 51.7504C104.576 51.7438 104.496 51.7013 104.442 51.633L95.058 39.7413C94.9597 39.6167 94.7598 39.7023 94.7823 39.8595L96.3541 50.8598C96.3818 51.0533 96.226 51.224 96.0308 51.2142C93.921 51.1088 91.7767 51.0192 89.5979 50.9452C89.4402 50.9399 89.3114 50.8172 89.2985 50.66L87.4885 28.5601C87.474 28.3834 87.6102 28.2304 87.7875 28.2243L92.8296 28.0503C92.9281 28.0469 93.0224 28.0905 93.0837 28.1677L102.811 40.4217C102.916 40.5535 103.126 40.448 103.083 40.2853L99.9472 28.4351C99.8951 28.238 100.044 28.0449 100.248 28.0449H104.946C105.084 28.0449 105.205 28.1352 105.244 28.2668L112.322 51.9928C112.385 52.2048 112.213 52.4131 111.993 52.3912C109.623 52.1548 107.175 51.9413 104.662 51.7504Z" fill="white"/>
<path d="M65.2989 14.4229C64.8227 13.653 64.1559 13.0051 63.2911 12.4753C62.4263 11.9455 61.3328 11.4463 60.0146 10.9813C59.8089 10.9089 59.6565 10.8555 59.5536 10.8288C58.8107 10.5696 58.2583 10.36 57.9001 10.1999C57.542 10.0437 57.2563 9.85311 57.0429 9.62824C56.8296 9.40718 56.7229 9.13277 56.7229 8.80499C56.7229 8.0351 57.3782 7.65015 58.6888 7.65015C59.3288 7.65015 59.9803 7.79117 60.6394 8.07321C61.2985 8.35906 61.8891 8.70589 62.411 9.11371C62.5406 9.21662 62.6663 9.26616 62.7882 9.26616C62.9368 9.26616 63.0701 9.19374 63.192 9.0451L65.4513 6.50674C65.5618 6.37335 65.6189 6.24376 65.6189 6.11417C65.6189 5.96553 65.5504 5.83213 65.4094 5.71017C64.4874 4.92122 63.4397 4.29235 62.2586 3.82736C61.0776 3.36238 59.8394 3.12988 58.5478 3.12988C57.0162 3.12988 55.7209 3.38905 54.6732 3.90359C53.6216 4.41812 52.8406 5.10416 52.3301 5.96172C51.8196 6.81546 51.5643 7.75306 51.5643 8.76306C51.5643 10.4667 52.1701 11.816 53.3816 12.8183C54.597 13.8169 55.98 14.5449 57.5306 14.9984C58.4678 15.2805 59.1841 15.5358 59.6717 15.7683C60.1594 16.0008 60.4908 16.2333 60.6623 16.4658C60.8337 16.6983 60.9176 16.9727 60.9176 17.2891C60.9176 17.754 60.7233 18.1199 60.3346 18.3905C59.9422 18.6612 59.3517 18.7945 58.563 18.7945C57.7706 18.7945 57.0086 18.6383 56.2771 18.3258C55.5418 18.017 54.8751 17.552 54.2808 16.9384C54.1626 16.8012 54.0255 16.7288 53.8769 16.7288C53.7474 16.7288 53.6216 16.7898 53.4997 16.9117L51.0347 19.2557C50.8938 19.3929 50.8252 19.5339 50.8252 19.675C50.8252 19.7931 50.8785 19.9189 50.9928 20.0485C51.9758 21.1576 53.1302 21.9999 54.456 22.5754C55.7818 23.1509 57.1915 23.4406 58.6888 23.4406C60.148 23.4406 61.4319 23.1814 62.5368 22.6669C63.6416 22.1485 64.4988 21.4206 65.1008 20.4754C65.7066 19.5301 66.0075 18.4363 66.0075 17.19C66.0075 16.1114 65.7713 15.189 65.2989 14.4229Z" fill="white"/>
<path d="M102.769 18.6423H95.21V4.39923C95.21 4.02572 95.0233 3.84277 94.6537 3.84277H90.7486C90.3753 3.84277 90.1924 4.02572 90.1924 4.39923V22.8843C90.1924 23.254 90.3753 23.4408 90.7486 23.4408H102.769C103.142 23.4408 103.325 23.254 103.325 22.8843V19.1987C103.325 18.829 103.142 18.6423 102.769 18.6423Z" fill="white"/>
<path fill-rule="evenodd" clip-rule="evenodd" d="M77.3389 3.31768C77.5312 3.20661 77.7681 3.20661 77.9604 3.31768L81.4133 5.31195C81.5161 5.37136 81.517 5.51955 81.4148 5.58012L76.6473 8.40547L72.9181 10.5593C72.8701 10.5871 72.8405 10.6384 72.8405 10.6939V16.0154C72.8405 16.0709 72.8701 16.1222 72.9181 16.15L75.698 17.7555C75.8015 17.8153 75.8015 17.9648 75.698 18.0246L72.189 20.0512C72.1419 20.0784 72.1258 20.1386 72.153 20.1857V20.1857C72.2034 20.273 72.1057 20.3706 72.0184 20.3202L69.1153 18.6435C68.9231 18.5324 68.8047 18.3273 68.8047 18.1054V8.6055C68.8047 8.38353 68.9231 8.17841 69.1153 8.0674L77.3389 3.31768ZM73.7789 21.068C73.6753 21.1278 73.6753 21.2772 73.7789 21.337L77.3389 23.3932C77.5312 23.5042 77.7681 23.5042 77.9604 23.3932L86.184 18.6435C86.3762 18.5324 86.4946 18.3273 86.4946 18.1054V8.6055C86.4946 8.38353 86.3762 8.17841 86.184 8.0674L83.272 6.38551C83.2506 6.37314 83.2267 6.3973 83.2393 6.41859V6.41859C83.2461 6.43002 83.2423 6.44477 83.2309 6.45153L79.4831 8.67257C79.3809 8.73314 79.3817 8.88133 79.4846 8.94074L82.287 10.5593C82.3351 10.5871 82.3647 10.6384 82.3647 10.6939V16.0154C82.3647 16.0709 82.3351 16.1222 82.287 16.15L78.4333 18.3757C78.4325 18.3762 78.4323 18.3772 78.4327 18.378V18.378C78.4332 18.3789 78.4329 18.3799 78.4321 18.3803L73.7789 21.068Z" fill="white"/>
<mask id="mask0_23_2139" style="mask-type:alpha" maskUnits="userSpaceOnUse" x="8" y="3" width="139" height="56">
<path fill-rule="evenodd" clip-rule="evenodd" d="M63.2914 12.4763C64.1563 13.0061 64.823 13.654 65.2992 14.4239C65.7717 15.19 66.0079 16.1123 66.0079 17.1909C66.0079 18.4373 65.7069 19.5311 65.1011 20.4763C64.4992 21.4215 63.642 22.1495 62.5371 22.6679C61.4322 23.1824 60.1483 23.4416 58.6891 23.4416C57.1918 23.4416 55.7822 23.1519 54.4563 22.5764C53.1305 22.0009 51.9761 21.1586 50.9932 20.0495C50.8789 19.9199 50.8255 19.7941 50.8255 19.6759C50.8255 19.5349 50.8941 19.3939 51.0351 19.2567L53.5001 16.9127C53.622 16.7907 53.7477 16.7298 53.8772 16.7298C54.0258 16.7298 54.163 16.8022 54.2811 16.9394C54.8754 17.553 55.5422 18.018 56.2775 18.3267C57.009 18.6393 57.7709 18.7955 58.5634 18.7955C59.352 18.7955 59.9426 18.6621 60.335 18.3915C60.7236 18.1209 60.9179 17.755 60.9179 17.29C60.9179 16.9737 60.8341 16.6993 60.6626 16.4668C60.4912 16.2343 60.1597 16.0018 59.6721 15.7693C59.1844 15.5368 58.4681 15.2815 57.5309 14.9994C55.9803 14.5459 54.5973 13.8179 53.382 12.8193C52.1704 11.8169 51.5647 10.4677 51.5647 8.76404C51.5647 7.75403 51.8199 6.81644 52.3304 5.96269C52.841 5.10514 53.622 4.4191 54.6735 3.90456C55.7212 3.39003 57.0166 3.13086 58.5482 3.13086C59.8397 3.13086 61.0779 3.36335 62.259 3.82834C63.44 4.29332 64.4877 4.92219 65.4097 5.71114C65.5507 5.83311 65.6193 5.96651 65.6193 6.11515C65.6193 6.24474 65.5621 6.37432 65.4516 6.50772L63.1924 9.04608C63.0705 9.19472 62.9371 9.26714 62.7885 9.26714C62.6666 9.26714 62.5409 9.21759 62.4114 9.11469C61.8894 8.70687 61.2989 8.36004 60.6398 8.07419C59.9807 7.79215 59.3292 7.65113 58.6891 7.65113C57.3785 7.65113 56.7232 8.03607 56.7232 8.80597C56.7232 9.13374 56.8299 9.40816 57.0433 9.62921C57.2566 9.85408 57.5423 10.0447 57.9005 10.2009C58.2586 10.361 58.811 10.5706 59.554 10.8298C59.6568 10.8565 59.8092 10.9098 60.015 10.9822C61.3332 11.4472 62.4266 11.9465 63.2914 12.4763ZM43.1351 28.6289C43.4193 28.4758 43.3105 28.0446 42.9877 28.0446H34.8496C34.7522 28.0446 34.6605 28.0902 34.6018 28.1679C32.0645 31.5219 29.5287 34.8774 26.9925 38.2335L24.608 41.3888L30.5769 41.5138L33.9694 36.5525C34.0603 36.4196 34.2685 36.4957 34.2522 36.6559L33.5807 43.2501C33.573 43.3259 33.5114 43.3849 33.4354 43.3894L29.4339 43.6293C29.4283 43.6297 29.4228 43.6297 29.4174 43.6295L20.9912 44.1357L20.9914 44.1344L16.1528 44.4258C16.0719 44.4307 15.9961 44.467 15.9416 44.527L8.96841 52.2005C8.77481 52.4135 8.94999 52.7526 9.23576 52.7179L16.7353 51.8084C16.0916 52.6612 15.4471 53.514 14.8025 54.3669L14.8024 54.3669L14.8024 54.367L14.8024 54.367L14.8023 54.3671L14.8023 54.3671L14.8022 54.3672L14.7964 54.375C14.3331 54.9878 13.8699 55.6006 13.4071 56.2135C13.2283 56.4502 13.4516 56.7806 13.7385 56.7051C16.0006 56.1097 18.5026 55.5497 21.2191 55.0302C21.2998 55.0148 21.3712 54.9681 21.4176 54.9004L24.1096 50.967C24.1348 50.9301 24.1747 50.9059 24.2191 50.9005L32.7152 49.8727C32.8141 49.8608 32.8985 49.9436 32.8884 50.0427L32.6014 52.8514C32.581 53.0507 32.7517 53.2169 32.9503 53.1915C35.0091 52.9285 37.1423 52.6845 39.3442 52.4621C39.505 52.4458 39.6267 52.3092 39.624 52.1476L39.2669 30.7126L43.1351 28.6289ZM146.448 52.91C146.734 52.9447 146.909 52.6057 146.715 52.3927L139.742 44.7192C139.687 44.6592 139.612 44.6229 139.531 44.618L134.844 44.3357L134.846 44.3424L124.43 43.7167L124.43 43.7124L122.248 43.5816C122.172 43.577 122.111 43.518 122.103 43.4422L121.431 36.8481C121.415 36.6879 121.623 36.6117 121.714 36.7446L125.27 41.9449L131.256 41.8195L128.691 38.4254C126.155 35.0694 123.619 31.7139 121.082 28.36C121.023 28.2824 120.931 28.2368 120.834 28.2368H112.696C112.373 28.2368 112.264 28.6679 112.548 28.821L116.417 30.9047L116.056 52.542C116.053 52.7019 116.172 52.8377 116.331 52.856C118.553 53.1126 120.698 53.388 122.758 53.6851C122.958 53.7139 123.133 53.547 123.112 53.3457L122.775 50.0415L131.534 51.1011L134.711 55.7452C134.756 55.8101 134.823 55.8558 134.9 55.8731C137.862 56.5404 140.5 57.2557 142.768 58.0165C143.061 58.1147 143.311 57.7727 143.124 57.5264C142.564 56.7841 142.003 56.0418 141.441 55.2996L141.428 55.282L141.351 55.1794C140.549 54.1198 139.748 53.0602 138.948 52.0006L146.448 52.91ZM65.1747 34.1428C65.1747 28.8069 61.3648 28.0446 60.2219 28.0446H49.7968C49.6542 28.0446 49.53 28.1417 49.4954 28.28L47.6915 35.4973C47.6424 35.6934 47.7908 35.8834 47.9929 35.8834H52.8011C52.951 35.8834 53.0795 35.7764 53.1066 35.6289L53.6378 32.7455C53.6514 32.6717 53.7157 32.6182 53.7906 32.6182H57.5549C57.5549 32.6182 59.4599 32.6182 59.4599 34.9051C59.4599 37.9313 56.8692 37.9541 56.793 37.9541L47.3198 37.9542C47.1773 37.9542 47.053 38.0512 47.0184 38.1895L43.6555 51.6412C43.6037 51.8482 43.7712 52.0446 43.9838 52.0264C45.9218 51.8607 47.9029 51.7074 49.9268 51.5694C50.0685 51.5597 50.1857 51.4554 50.2115 51.3158L51.6719 43.4171C51.6855 43.3435 51.7497 43.29 51.8246 43.29H54.3982C54.4636 43.29 54.5219 43.3309 54.5442 43.3923L57.2863 50.9341C57.3328 51.062 57.457 51.1447 57.5929 51.1384C59.8024 51.0361 62.0523 50.9525 64.334 50.8877C64.557 50.8814 64.7012 50.6493 64.6077 50.4467L60.6028 41.7655C60.6028 41.7655 65.1747 39.4787 65.1747 34.1428ZM85.2764 50.8289C85.4739 50.8335 85.6256 50.6551 85.5893 50.461L84.6519 45.4507C84.6244 45.3037 84.4961 45.1972 84.3465 45.1972H74.0922C74.0064 45.1972 73.9368 45.1276 73.9368 45.0418V41.16C73.9368 41.0742 74.0064 41.0047 74.0922 41.0047H81.6269C81.7984 41.0047 81.9376 40.8656 81.9376 40.694V37.1229C81.9376 36.9513 81.7984 36.8122 81.6269 36.8122H74.0922C74.0064 36.8122 73.9368 36.7426 73.9368 36.6568V33.1562C73.9368 33.0704 74.0064 33.0008 74.0922 33.0008H83.5191C83.6956 33.0008 83.8366 32.8541 83.8296 32.6777L83.6639 28.5349C83.6573 28.3683 83.5202 28.2367 83.3535 28.2367H69.0893C68.9236 28.2367 68.7871 28.3666 68.779 28.5321L67.7012 50.4747C67.6923 50.6546 67.8378 50.8043 68.0179 50.8007C70.6533 50.7482 73.327 50.7236 76.0322 50.7236C79.1613 50.7236 82.2483 50.7587 85.2764 50.8289ZM104.662 51.7501C104.575 51.7435 104.495 51.701 104.442 51.6327L95.0577 39.741C94.9594 39.6164 94.7595 39.702 94.782 39.8592L96.3538 50.8595C96.3815 51.053 96.2257 51.2237 96.0305 51.2139C93.9207 51.1085 91.7764 51.0189 89.5976 50.9449C89.4399 50.9396 89.3111 50.8169 89.2982 50.6597L87.4882 28.5598C87.4737 28.3831 87.6099 28.2301 87.7872 28.224L92.8293 28.05C92.9278 28.0466 93.0221 28.0902 93.0834 28.1674L102.811 40.4214C102.915 40.5532 103.126 40.4477 103.083 40.285L99.947 28.4348C99.8948 28.2377 100.043 28.0446 100.247 28.0446H104.946C105.083 28.0446 105.204 28.1348 105.244 28.2665L112.322 51.9925C112.385 52.2045 112.213 52.4128 111.993 52.3909C109.622 52.1545 107.175 51.941 104.662 51.7501ZM102.77 18.6433H95.2108V4.40031C95.2108 4.0268 95.0241 3.84385 94.6546 3.84385H90.7494C90.3761 3.84385 90.1932 4.0268 90.1932 4.40031V22.8854C90.1932 23.2551 90.3761 23.4418 90.7494 23.4418H102.77C103.143 23.4418 103.326 23.2551 103.326 22.8854V19.1998C103.326 18.8301 103.143 18.6433 102.77 18.6433ZM77.9603 3.31895C77.768 3.20787 77.531 3.20787 77.3387 3.31895L69.1152 8.06867C68.923 8.17968 68.8046 8.3848 68.8046 8.60677V18.1066C68.8046 18.3286 68.923 18.5337 69.1152 18.6447L72.0183 20.3215C72.1056 20.3719 72.2032 20.2743 72.1529 20.187C72.1257 20.1399 72.1418 20.0797 72.1889 20.0525L75.6978 18.0258C75.8014 17.966 75.8014 17.8166 75.6978 17.7568L72.918 16.1512C72.87 16.1235 72.8404 16.0722 72.8404 16.0167V10.6951C72.8404 10.6396 72.87 10.5884 72.918 10.5606L76.6472 8.40674L81.4147 5.58139C81.5169 5.52082 81.516 5.37263 81.4132 5.31322L77.9603 3.31895ZM73.7787 21.3383C73.6752 21.2785 73.6752 21.129 73.7787 21.0692L78.432 18.3816C78.4324 18.3814 78.4326 18.381 78.4328 18.3806C78.4329 18.3802 78.4329 18.3797 78.4326 18.3793C78.4321 18.3785 78.4324 18.3775 78.4332 18.377L82.2869 16.1512C82.3349 16.1235 82.3645 16.0722 82.3645 16.0167V10.6951C82.3645 10.6396 82.3349 10.5884 82.2869 10.5606L79.4845 8.94201C79.3816 8.8826 79.3808 8.73441 79.483 8.67384L83.2308 6.4528C83.2422 6.44603 83.2459 6.43129 83.2392 6.41986C83.2266 6.39857 83.2505 6.3744 83.2719 6.38678L86.1839 8.06867C86.3761 8.17968 86.4945 8.3848 86.4945 8.60677V18.1066C86.4945 18.3286 86.3761 18.5337 86.1839 18.6447L77.9603 23.3944C77.768 23.5055 77.531 23.5055 77.3387 23.3944L73.7787 21.3383Z" fill="white"/>
</mask>
<g mask="url(#mask0_23_2139)">
<path d="M68.3917 47.6721L0 43.7198C2.40573 49.5623 7.28593 61.5223 7.56087 62.622C7.83581 63.7218 98.4062 66.2879 143.657 67.4335L156.201 61.2473L139.705 30.3164L68.3917 47.6721Z" fill="#D4B6FF"/>
<path d="M126.13 24.8174L130.941 30.3162L77.8061 35.067L24.4014 35.815L25.9479 26.0202L126.13 24.8174Z" fill="#B3FFF0"/>
<path d="M110.835 10.7266L48.6299 18.6311L49.8328 25.5046L83.5131 24.1299L110.835 16.3972V10.7266Z" fill="#D4B6FF"/>
</g>
<rect x="20.1309" y="23.8779" width="4.10135" height="2.05067" rx="1.02534" fill="black"/>
<rect x="130.252" y="23.4238" width="2.60503" height="2.05067" rx="1.02534" fill="black"/>
</svg>
