<svg width="649" height="217" viewBox="0 0 649 217" fill="none" xmlns="http://www.w3.org/2000/svg">
<g filter="url(#filter0_f_794_695)">
<ellipse cx="324.5" cy="108.5" rx="244.5" ry="28.5" fill="#0014C3"/>
</g>
<g filter="url(#filter1_d_794_695)">
<path d="M121.78 122.48C119.327 122.48 117.38 122.04 115.94 121.16C114.527 120.253 113.527 119 112.94 117.4C112.353 115.773 112.06 113.867 112.06 111.68V100C112.06 97.76 112.353 95.84 112.94 94.24C113.527 92.6133 114.527 91.36 115.94 90.48C117.38 89.6 119.327 89.16 121.78 89.16C124.18 89.16 126.047 89.56 127.38 90.36C128.74 91.1333 129.7 92.2267 130.26 93.64C130.82 95.0533 131.1 96.68 131.1 98.52V101.32H124.1V98.08C124.1 97.44 124.06 96.8267 123.98 96.24C123.927 95.6533 123.74 95.1733 123.42 94.8C123.1 94.4 122.553 94.2 121.78 94.2C121.033 94.2 120.473 94.4 120.1 94.8C119.753 95.2 119.527 95.7067 119.42 96.32C119.34 96.9067 119.3 97.5333 119.3 98.2V113.44C119.3 114.16 119.353 114.827 119.46 115.44C119.593 116.027 119.833 116.507 120.18 116.88C120.553 117.227 121.087 117.4 121.78 117.4C122.527 117.4 123.06 117.213 123.38 116.84C123.7 116.44 123.9 115.933 123.98 115.32C124.06 114.707 124.1 114.08 124.1 113.44V110.04H131.1V112.84C131.1 114.68 130.82 116.333 130.26 117.8C129.727 119.24 128.78 120.387 127.42 121.24C126.087 122.067 124.207 122.48 121.78 122.48ZM143.079 122.4C141.426 122.4 139.986 122.12 138.759 121.56C137.559 121 136.626 120.16 135.959 119.04C135.319 117.92 134.999 116.52 134.999 114.84V106.04C134.999 104.36 135.319 102.96 135.959 101.84C136.626 100.72 137.559 99.88 138.759 99.32C139.986 98.76 141.426 98.48 143.079 98.48C144.732 98.48 146.159 98.76 147.359 99.32C148.586 99.88 149.532 100.72 150.199 101.84C150.866 102.96 151.199 104.36 151.199 106.04V114.84C151.199 116.52 150.866 117.92 150.199 119.04C149.532 120.16 148.586 121 147.359 121.56C146.159 122.12 144.732 122.4 143.079 122.4ZM143.119 118.08C143.546 118.08 143.879 117.973 144.119 117.76C144.359 117.52 144.519 117.2 144.599 116.8C144.706 116.373 144.759 115.867 144.759 115.28V105.6C144.759 105.013 144.706 104.52 144.599 104.12C144.519 103.693 144.359 103.373 144.119 103.16C143.879 102.92 143.546 102.8 143.119 102.8C142.692 102.8 142.359 102.92 142.119 103.16C141.879 103.373 141.706 103.693 141.599 104.12C141.492 104.52 141.439 105.013 141.439 105.6V115.28C141.439 115.867 141.492 116.373 141.599 116.8C141.706 117.2 141.879 117.52 142.119 117.76C142.359 117.973 142.692 118.08 143.119 118.08ZM155.895 122V89.6H162.375V122H155.895ZM167.672 122V89.6H174.152V122H167.672ZM186.728 122.4C185.048 122.4 183.608 122.107 182.408 121.52C181.208 120.907 180.288 120.027 179.648 118.88C179.008 117.707 178.688 116.307 178.688 114.68V106.2C178.688 104.547 179.008 103.147 179.648 102C180.288 100.853 181.208 99.9867 182.408 99.4C183.635 98.7867 185.075 98.48 186.728 98.48C188.435 98.48 189.848 98.7733 190.968 99.36C192.115 99.9467 192.968 100.813 193.528 101.96C194.115 103.107 194.408 104.52 194.408 106.2V110.84H185.128V115.28C185.128 115.867 185.195 116.347 185.328 116.72C185.461 117.093 185.648 117.36 185.888 117.52C186.128 117.68 186.408 117.76 186.728 117.76C187.048 117.76 187.328 117.693 187.568 117.56C187.835 117.4 188.035 117.16 188.168 116.84C188.328 116.52 188.408 116.08 188.408 115.52V113.08H194.408V115.32C194.408 117.667 193.728 119.44 192.368 120.64C191.008 121.813 189.128 122.4 186.728 122.4ZM185.128 107.8H188.408V105.48C188.408 104.867 188.328 104.387 188.168 104.04C188.035 103.693 187.835 103.453 187.568 103.32C187.328 103.187 187.035 103.12 186.688 103.12C186.368 103.12 186.088 103.2 185.848 103.36C185.635 103.52 185.461 103.8 185.328 104.2C185.195 104.573 185.128 105.12 185.128 105.84V107.8ZM206.277 122.4C204.597 122.4 203.157 122.093 201.957 121.48C200.784 120.867 199.877 119.987 199.237 118.84C198.597 117.693 198.277 116.307 198.277 114.68V106.2C198.277 104.547 198.597 103.147 199.237 102C199.877 100.853 200.784 99.9867 201.957 99.4C203.157 98.7867 204.597 98.48 206.277 98.48C207.931 98.48 209.331 98.7333 210.477 99.24C211.651 99.7467 212.544 100.52 213.157 101.56C213.771 102.573 214.077 103.867 214.077 105.44V107.88H207.797V105.24C207.797 104.627 207.731 104.16 207.597 103.84C207.491 103.493 207.317 103.253 207.077 103.12C206.864 102.987 206.597 102.92 206.277 102.92C205.957 102.92 205.691 103.013 205.477 103.2C205.264 103.36 205.104 103.64 204.997 104.04C204.891 104.413 204.837 104.947 204.837 105.64V115.24C204.837 116.28 204.957 116.987 205.197 117.36C205.464 117.733 205.837 117.92 206.317 117.92C206.664 117.92 206.944 117.853 207.157 117.72C207.371 117.56 207.531 117.32 207.637 117C207.744 116.653 207.797 116.2 207.797 115.64V112.56H214.077V115.36C214.077 116.907 213.757 118.213 213.117 119.28C212.504 120.32 211.611 121.107 210.437 121.64C209.291 122.147 207.904 122.4 206.277 122.4ZM225.508 122.24C223.775 122.24 222.441 121.987 221.508 121.48C220.575 120.973 219.921 120.24 219.548 119.28C219.201 118.293 219.028 117.107 219.028 115.72V103.16H216.788V98.88H219.028V91.84H225.628V98.88H228.908V103.16H225.628V115.08C225.628 115.747 225.815 116.227 226.188 116.52C226.588 116.813 227.081 116.96 227.668 116.96C228.015 116.96 228.335 116.947 228.628 116.92C228.921 116.867 229.188 116.827 229.428 116.8V121.92C229.081 121.973 228.535 122.04 227.788 122.12C227.041 122.2 226.281 122.24 225.508 122.24ZM233.772 127.6L233.372 125.48C234.065 125.293 234.705 124.947 235.292 124.44C235.905 123.96 236.212 123.147 236.212 122H232.772V115.84H238.972V121.16C238.945 123.133 238.505 124.667 237.652 125.76C236.798 126.853 235.505 127.467 233.772 127.6ZM254.817 122V89.6H269.377V94.48H261.977V102.52H267.617V107.48H261.977V117.16H269.457V122H254.817ZM271.548 122L276.468 109.32L271.788 98.88H278.348L280.828 104.44L283.028 98.88H288.028L283.468 110.28L288.708 122H282.068L279.268 115.64L276.948 122H271.548ZM298.883 122.24C297.15 122.24 295.816 121.987 294.883 121.48C293.95 120.973 293.296 120.24 292.923 119.28C292.576 118.293 292.403 117.107 292.403 115.72V103.16H290.163V98.88H292.403V91.84H299.003V98.88H302.283V103.16H299.003V115.08C299.003 115.747 299.19 116.227 299.563 116.52C299.963 116.813 300.456 116.96 301.043 116.96C301.39 116.96 301.71 116.947 302.003 116.92C302.296 116.867 302.563 116.827 302.803 116.8V121.92C302.456 121.973 301.91 122.04 301.163 122.12C300.416 122.2 299.656 122.24 298.883 122.24ZM306.547 122V98.88H313.067V102.72C313.813 101.387 314.56 100.373 315.307 99.68C316.053 98.96 316.96 98.6 318.027 98.6C318.24 98.6 318.427 98.6133 318.587 98.64C318.747 98.64 318.893 98.6667 319.027 98.72V105.2C318.733 105.067 318.4 104.96 318.027 104.88C317.68 104.773 317.307 104.72 316.907 104.72C316.16 104.72 315.467 104.92 314.827 105.32C314.187 105.72 313.6 106.267 313.067 106.96V122H306.547ZM326.035 122.4C324.862 122.4 323.875 122.12 323.075 121.56C322.275 121 321.675 120.293 321.275 119.44C320.875 118.56 320.675 117.667 320.675 116.76C320.675 115.32 320.955 114.107 321.515 113.12C322.102 112.133 322.862 111.307 323.795 110.64C324.728 109.973 325.755 109.413 326.875 108.96C327.995 108.48 329.102 108.053 330.195 107.68V105.36C330.195 104.96 330.155 104.613 330.075 104.32C329.995 104 329.862 103.76 329.675 103.6C329.488 103.413 329.208 103.32 328.835 103.32C328.462 103.32 328.168 103.4 327.955 103.56C327.768 103.72 327.635 103.947 327.555 104.24C327.475 104.507 327.422 104.813 327.395 105.16L327.235 106.84L321.155 106.6C321.288 103.827 322.022 101.787 323.355 100.48C324.715 99.1467 326.742 98.48 329.435 98.48C331.782 98.48 333.528 99.1333 334.675 100.44C335.848 101.72 336.435 103.387 336.435 105.44V116.24C336.435 117.2 336.448 118.04 336.475 118.76C336.528 119.48 336.582 120.107 336.635 120.64C336.715 121.173 336.782 121.627 336.835 122H330.995C330.915 121.387 330.822 120.72 330.715 120C330.608 119.28 330.528 118.853 330.475 118.72C330.208 119.68 329.702 120.533 328.955 121.28C328.235 122.027 327.262 122.4 326.035 122.4ZM328.355 118C328.622 118 328.862 117.947 329.075 117.84C329.315 117.733 329.528 117.587 329.715 117.4C329.902 117.213 330.062 117.027 330.195 116.84V110.52C329.662 110.84 329.168 111.173 328.715 111.52C328.262 111.84 327.875 112.2 327.555 112.6C327.235 113 326.982 113.44 326.795 113.92C326.635 114.373 326.555 114.893 326.555 115.48C326.555 116.253 326.715 116.867 327.035 117.32C327.355 117.773 327.795 118 328.355 118ZM348.633 122.4C346.953 122.4 345.513 122.093 344.313 121.48C343.14 120.867 342.233 119.987 341.593 118.84C340.953 117.693 340.633 116.307 340.633 114.68V106.2C340.633 104.547 340.953 103.147 341.593 102C342.233 100.853 343.14 99.9867 344.313 99.4C345.513 98.7867 346.953 98.48 348.633 98.48C350.287 98.48 351.687 98.7333 352.833 99.24C354.007 99.7467 354.9 100.52 355.513 101.56C356.127 102.573 356.433 103.867 356.433 105.44V107.88H350.153V105.24C350.153 104.627 350.087 104.16 349.953 103.84C349.847 103.493 349.673 103.253 349.433 103.12C349.22 102.987 348.953 102.92 348.633 102.92C348.313 102.92 348.047 103.013 347.833 103.2C347.62 103.36 347.46 103.64 347.353 104.04C347.247 104.413 347.193 104.947 347.193 105.64V115.24C347.193 116.28 347.313 116.987 347.553 117.36C347.82 117.733 348.193 117.92 348.673 117.92C349.02 117.92 349.3 117.853 349.513 117.72C349.727 117.56 349.887 117.32 349.993 117C350.1 116.653 350.153 116.2 350.153 115.64V112.56H356.433V115.36C356.433 116.907 356.113 118.213 355.473 119.28C354.86 120.32 353.967 121.107 352.793 121.64C351.647 122.147 350.26 122.4 348.633 122.4ZM367.864 122.24C366.131 122.24 364.798 121.987 363.864 121.48C362.931 120.973 362.278 120.24 361.904 119.28C361.558 118.293 361.384 117.107 361.384 115.72V103.16H359.144V98.88H361.384V91.84H367.984V98.88H371.264V103.16H367.984V115.08C367.984 115.747 368.171 116.227 368.544 116.52C368.944 116.813 369.438 116.96 370.024 116.96C370.371 116.96 370.691 116.947 370.984 116.92C371.278 116.867 371.544 116.827 371.784 116.8V121.92C371.438 121.973 370.891 122.04 370.144 122.12C369.398 122.2 368.638 122.24 367.864 122.24ZM376.128 127.6L375.728 125.48C376.421 125.293 377.061 124.947 377.648 124.44C378.261 123.96 378.568 123.147 378.568 122H375.128V115.84H381.328V121.16C381.301 123.133 380.861 124.667 380.008 125.76C379.154 126.853 377.861 127.467 376.128 127.6ZM397.173 122V89.6H405.373C408.2 89.6 410.4 89.96 411.973 90.68C413.547 91.3733 414.653 92.48 415.293 94C415.933 95.4933 416.253 97.44 416.253 99.84V111.6C416.253 114.027 415.933 116.013 415.293 117.56C414.653 119.08 413.547 120.2 411.973 120.92C410.427 121.64 408.253 122 405.453 122H397.173ZM404.333 117.04H405.453C406.547 117.04 407.333 116.88 407.813 116.56C408.293 116.24 408.587 115.76 408.693 115.12C408.827 114.48 408.893 113.68 408.893 112.72V98.6C408.893 97.64 408.813 96.8667 408.653 96.28C408.52 95.6933 408.213 95.2667 407.733 95C407.253 94.7333 406.48 94.6 405.413 94.6H404.333V117.04ZM428.651 122.4C426.998 122.4 425.558 122.12 424.331 121.56C423.131 121 422.198 120.16 421.531 119.04C420.891 117.92 420.571 116.52 420.571 114.84V106.04C420.571 104.36 420.891 102.96 421.531 101.84C422.198 100.72 423.131 99.88 424.331 99.32C425.558 98.76 426.998 98.48 428.651 98.48C430.304 98.48 431.731 98.76 432.931 99.32C434.158 99.88 435.104 100.72 435.771 101.84C436.438 102.96 436.771 104.36 436.771 106.04V114.84C436.771 116.52 436.438 117.92 435.771 119.04C435.104 120.16 434.158 121 432.931 121.56C431.731 122.12 430.304 122.4 428.651 122.4ZM428.691 118.08C429.118 118.08 429.451 117.973 429.691 117.76C429.931 117.52 430.091 117.2 430.171 116.8C430.278 116.373 430.331 115.867 430.331 115.28V105.6C430.331 105.013 430.278 104.52 430.171 104.12C430.091 103.693 429.931 103.373 429.691 103.16C429.451 102.92 429.118 102.8 428.691 102.8C428.264 102.8 427.931 102.92 427.691 103.16C427.451 103.373 427.278 103.693 427.171 104.12C427.064 104.52 427.011 105.013 427.011 105.6V115.28C427.011 115.867 427.064 116.373 427.171 116.8C427.278 117.2 427.451 117.52 427.691 117.76C427.931 117.973 428.264 118.08 428.691 118.08ZM441.187 122V98.88H447.587V100.72C448.44 99.8933 449.32 99.3067 450.227 98.96C451.16 98.6133 452.107 98.44 453.067 98.44C454 98.44 454.8 98.68 455.467 99.16C456.16 99.6133 456.68 100.293 457.027 101.2C457.934 100.187 458.88 99.48 459.867 99.08C460.88 98.6533 461.894 98.44 462.907 98.44C463.814 98.44 464.6 98.6667 465.267 99.12C465.934 99.5467 466.454 100.187 466.827 101.04C467.2 101.867 467.387 102.867 467.387 104.04V122H460.987V104.72C460.987 104.08 460.867 103.627 460.627 103.36C460.414 103.067 460.08 102.92 459.627 102.92C459.36 102.92 459.027 103 458.627 103.16C458.227 103.293 457.84 103.493 457.467 103.76C457.467 103.813 457.467 103.867 457.467 103.92C457.467 103.947 457.467 103.987 457.467 104.04V122H451.147V104.72C451.147 104.08 451.027 103.627 450.787 103.36C450.547 103.067 450.2 102.92 449.747 102.92C449.454 102.92 449.107 103 448.707 103.16C448.334 103.293 447.96 103.493 447.587 103.76V122H441.187ZM472.144 122V98.88H478.664V122H472.144ZM472.104 94.96V90.44H478.664V94.96H472.104ZM483.49 122V98.88H490.01V101.2C490.863 100.347 491.743 99.68 492.65 99.2C493.583 98.72 494.557 98.48 495.57 98.48C496.53 98.48 497.317 98.72 497.93 99.2C498.57 99.6533 499.05 100.293 499.37 101.12C499.69 101.92 499.85 102.84 499.85 103.88V122H493.37V104.8C493.37 104.24 493.277 103.813 493.09 103.52C492.903 103.227 492.557 103.08 492.05 103.08C491.783 103.08 491.463 103.16 491.09 103.32C490.743 103.453 490.383 103.653 490.01 103.92V122H483.49ZM508.683 122.4C507.51 122.4 506.523 122.12 505.723 121.56C504.923 121 504.323 120.293 503.923 119.44C503.523 118.56 503.323 117.667 503.323 116.76C503.323 115.32 503.603 114.107 504.163 113.12C504.75 112.133 505.51 111.307 506.443 110.64C507.377 109.973 508.403 109.413 509.523 108.96C510.643 108.48 511.75 108.053 512.843 107.68V105.36C512.843 104.96 512.803 104.613 512.723 104.32C512.643 104 512.51 103.76 512.323 103.6C512.137 103.413 511.857 103.32 511.483 103.32C511.11 103.32 510.817 103.4 510.603 103.56C510.417 103.72 510.283 103.947 510.203 104.24C510.123 104.507 510.07 104.813 510.043 105.16L509.883 106.84L503.803 106.6C503.937 103.827 504.67 101.787 506.003 100.48C507.363 99.1467 509.39 98.48 512.083 98.48C514.43 98.48 516.177 99.1333 517.323 100.44C518.497 101.72 519.083 103.387 519.083 105.44V116.24C519.083 117.2 519.097 118.04 519.123 118.76C519.177 119.48 519.23 120.107 519.283 120.64C519.363 121.173 519.43 121.627 519.483 122H513.643C513.563 121.387 513.47 120.72 513.363 120C513.257 119.28 513.177 118.853 513.123 118.72C512.857 119.68 512.35 120.533 511.603 121.28C510.883 122.027 509.91 122.4 508.683 122.4ZM511.003 118C511.27 118 511.51 117.947 511.723 117.84C511.963 117.733 512.177 117.587 512.363 117.4C512.55 117.213 512.71 117.027 512.843 116.84V110.52C512.31 110.84 511.817 111.173 511.363 111.52C510.91 111.84 510.523 112.2 510.203 112.6C509.883 113 509.63 113.44 509.443 113.92C509.283 114.373 509.203 114.893 509.203 115.48C509.203 116.253 509.363 116.867 509.683 117.32C510.003 117.773 510.443 118 511.003 118ZM531.002 122.24C529.269 122.24 527.935 121.987 527.002 121.48C526.069 120.973 525.415 120.24 525.042 119.28C524.695 118.293 524.522 117.107 524.522 115.72V103.16H522.282V98.88H524.522V91.84H531.122V98.88H534.402V103.16H531.122V115.08C531.122 115.747 531.309 116.227 531.682 116.52C532.082 116.813 532.575 116.96 533.162 116.96C533.509 116.96 533.829 116.947 534.122 116.92C534.415 116.867 534.682 116.827 534.922 116.8V121.92C534.575 121.973 534.029 122.04 533.282 122.12C532.535 122.2 531.775 122.24 531.002 122.24ZM546.145 122.4C544.465 122.4 543.025 122.107 541.825 121.52C540.625 120.907 539.705 120.027 539.065 118.88C538.425 117.707 538.105 116.307 538.105 114.68V106.2C538.105 104.547 538.425 103.147 539.065 102C539.705 100.853 540.625 99.9867 541.825 99.4C543.052 98.7867 544.492 98.48 546.145 98.48C547.852 98.48 549.265 98.7733 550.385 99.36C551.532 99.9467 552.385 100.813 552.945 101.96C553.532 103.107 553.825 104.52 553.825 106.2V110.84H544.545V115.28C544.545 115.867 544.612 116.347 544.745 116.72C544.879 117.093 545.065 117.36 545.305 117.52C545.545 117.68 545.825 117.76 546.145 117.76C546.465 117.76 546.745 117.693 546.985 117.56C547.252 117.4 547.452 117.16 547.585 116.84C547.745 116.52 547.825 116.08 547.825 115.52V113.08H553.825V115.32C553.825 117.667 553.145 119.44 551.785 120.64C550.425 121.813 548.545 122.4 546.145 122.4ZM544.545 107.8H547.825V105.48C547.825 104.867 547.745 104.387 547.585 104.04C547.452 103.693 547.252 103.453 546.985 103.32C546.745 103.187 546.452 103.12 546.105 103.12C545.785 103.12 545.505 103.2 545.265 103.36C545.052 103.52 544.879 103.8 544.745 104.2C544.612 104.573 544.545 105.12 544.545 105.84V107.8ZM557.974 122V115.84H564.134V122H557.974Z" fill="url(#paint0_linear_794_695)"/>
</g>
<defs>
<filter id="filter0_f_794_695" x="0" y="0" width="649" height="217" filterUnits="userSpaceOnUse" color-interpolation-filters="sRGB">
<feFlood flood-opacity="0" result="BackgroundImageFix"/>
<feBlend mode="normal" in="SourceGraphic" in2="BackgroundImageFix" result="shape"/>
<feGaussianBlur stdDeviation="40" result="effect1_foregroundBlur_794_695"/>
</filter>
<filter id="filter1_d_794_695" x="108.06" y="85.1602" width="460.074" height="46.4395" filterUnits="userSpaceOnUse" color-interpolation-filters="sRGB">
<feFlood flood-opacity="0" result="BackgroundImageFix"/>
<feColorMatrix in="SourceAlpha" type="matrix" values="0 0 0 0 0 0 0 0 0 0 0 0 0 0 0 0 0 0 127 0" result="hardAlpha"/>
<feOffset/>
<feGaussianBlur stdDeviation="2"/>
<feComposite in2="hardAlpha" operator="out"/>
<feColorMatrix type="matrix" values="0 0 0 0 0.113725 0 0 0 0 0.152941 0 0 0 0 0.866667 0 0 0 1 0"/>
<feBlend mode="normal" in2="BackgroundImageFix" result="effect1_dropShadow_794_695"/>
<feBlend mode="normal" in="SourceGraphic" in2="effect1_dropShadow_794_695" result="shape"/>
</filter>
<linearGradient id="paint0_linear_794_695" x1="338" y1="90" x2="338" y2="122" gradientUnits="userSpaceOnUse">
<stop offset="0.5" stop-color="white"/>
<stop offset="0.5" stop-color="#ADF0FF"/>
<stop offset="1" stop-color="#4EFFFF"/>
</linearGradient>
</defs>
</svg>
